<svg xmlns="http://www.w3.org/2000/svg" viewBox="-2 -8.5 104 104"><defs><pattern id="hatch" width="5" height="5" patternUnits="userSpaceOnUse" patternTransform="rotate(45)"><rect width="5" height="5" fill="#fff"/><line x1="0" y1="0" x2="0" y2="5" stroke="#000" stroke-width="2.6"/></pattern><pattern id="dots" width="6" height="6" patternUnits="userSpaceOnUse"><rect width="6" height="6" fill="#fff"/><circle cx="3" cy="3" r="1.15" fill="#000"/></pattern><pattern id="stripes" width="6" height="5" patternUnits="userSpaceOnUse"><rect width="6" height="5" fill="#fff"/><line x1="0" y1="2.5" x2="6" y2="2.5" stroke="#000" stroke-width="1.5"/></pattern></defs><rect x="-2" y="-8.5" width="104" height="104" fill="#fff"/><ellipse cx="50" cy="66" rx="44" ry="9" transform="rotate(0 50 66)" style="fill:#fff;stroke:#000" stroke-width="2.6"/>
    <svg x="18" y="20" width="64" height="58" viewBox="0 3 40 36"><ellipse cx="20" cy="31" rx="17.5" ry="6.5" transform="rotate(0 20 31)" style="fill:#fff;stroke:#000" stroke-width="2"/><ellipse cx="20" cy="30.4" rx="11" ry="3.6" transform="rotate(0 20 30.4)" style="fill:none;stroke:#000" stroke-width="1.1"/><path d="M7 26 Q6 15 19 14.5 Q31 14 32 24 Q31 29.5 20 29.5 Q8 29.5 7 26 Z" style="fill:url(#hatch);stroke:#000" stroke-width="2" stroke-linejoin="round" stroke-linecap="round"/><path d="M9 19 L4.5 14.5 M30 19 L35 14" style="fill:none;stroke:#000" stroke-width="2.2" stroke-linecap="round" stroke-linejoin="round"/><circle cx="4" cy="14" r="1.6" style="fill:#fff;stroke:#000" stroke-width="1.4"/><circle cx="35.5" cy="13.5" r="1.6" style="fill:#fff;stroke:#000" stroke-width="1.4"/><path d="M14 19 q6 -3 12 0" style="fill:none;stroke:#000" stroke-width="1.2" stroke-linecap="round" stroke-linejoin="round"/></svg>
    <g class="lid" transform="translate(0 0)"><path d="M10 62 Q10 22 50 22 Q90 22 90 62 Z" style="fill:#fff;stroke:#000" stroke-width="2.8" stroke-linejoin="round" stroke-linecap="round"/><path d="M22 48 Q26 34 38 29" style="fill:none;stroke:#000" stroke-width="2" stroke-linecap="round" stroke-linejoin="round"/><circle cx="50" cy="17" r="5" style="fill:#fff;stroke:#000" stroke-width="2.6"/><path d="M6 62 H94 V66 H6 Z" style="fill:#000;stroke:#000" stroke-width="1" stroke-linejoin="round" stroke-linecap="round"/></g></svg>
